<mxfile host="app.diagrams.net" modified="2021-01-21T01:22:11.365Z" agent="5.0 (Windows)" etag="Z3hiCsiZRchwiWzEwaAr" version="14.2.6" type="github">
  <diagram id="v104yBQcNv0pQk6Xh2De" name="Page-1">
    <mxGraphModel dx="810" dy="547" grid="1" gridSize="10" guides="1" tooltips="1" connect="1" arrows="1" fold="1" page="1" pageScale="1" pageWidth="850" pageHeight="1100" math="0" shadow="0">
      <root>
        <mxCell id="0" />
        <mxCell id="1" parent="0" />
        <mxCell id="ISORRHaMBGVGcDwKjLnG-24" value="" style="rounded=0;whiteSpace=wrap;html=1;" vertex="1" parent="1">
          <mxGeometry x="90" y="100" width="730" height="400" as="geometry" />
        </mxCell>
        <mxCell id="ISORRHaMBGVGcDwKjLnG-1" value="dzcb" style="rounded=0;whiteSpace=wrap;html=1;fontStyle=1;fontSize=24;fontFamily=Lucida Console;" vertex="1" parent="1">
          <mxGeometry x="370" y="280" width="170" height="100" as="geometry" />
        </mxCell>
        <mxCell id="ISORRHaMBGVGcDwKjLnG-2" value="&lt;div&gt;user-supplied&lt;/div&gt;&lt;div&gt;k7abd&lt;/div&gt;" style="rounded=0;whiteSpace=wrap;html=1;" vertex="1" parent="1">
          <mxGeometry x="110" y="270" width="120" height="60" as="geometry" />
        </mxCell>
        <mxCell id="ISORRHaMBGVGcDwKjLnG-3" value="&lt;div&gt;zone order&lt;/div&gt;&lt;div&gt;order.json&lt;br&gt;&lt;/div&gt;" style="rounded=0;whiteSpace=wrap;html=1;" vertex="1" parent="1">
          <mxGeometry x="110" y="340" width="120" height="60" as="geometry" />
        </mxCell>
        <mxCell id="ISORRHaMBGVGcDwKjLnG-4" value="scanlists.json" style="rounded=0;whiteSpace=wrap;html=1;" vertex="1" parent="1">
          <mxGeometry x="110" y="410" width="120" height="60" as="geometry" />
        </mxCell>
        <mxCell id="ISORRHaMBGVGcDwKjLnG-5" value="&lt;div&gt;repeaterbook&lt;/div&gt;&lt;div&gt;prox.csv&lt;br&gt;&lt;/div&gt;" style="rounded=0;whiteSpace=wrap;html=1;" vertex="1" parent="1">
          <mxGeometry x="110" y="200" width="120" height="60" as="geometry" />
        </mxCell>
        <mxCell id="ISORRHaMBGVGcDwKjLnG-6" value="&lt;div&gt;PNWDigital.net&lt;/div&gt;" style="rounded=0;whiteSpace=wrap;html=1;" vertex="1" parent="1">
          <mxGeometry x="395" y="120" width="120" height="60" as="geometry" />
        </mxCell>
        <mxCell id="ISORRHaMBGVGcDwKjLnG-7" value="&lt;div&gt;SeattleDMR.org&lt;/div&gt;" style="rounded=0;whiteSpace=wrap;html=1;" vertex="1" parent="1">
          <mxGeometry x="530" y="120" width="120" height="60" as="geometry" />
        </mxCell>
        <mxCell id="ISORRHaMBGVGcDwKjLnG-8" value="Repeaterbook.com" style="rounded=0;whiteSpace=wrap;html=1;" vertex="1" parent="1">
          <mxGeometry x="260" y="120" width="120" height="60" as="geometry" />
        </mxCell>
        <mxCell id="ISORRHaMBGVGcDwKjLnG-9" value="Farnsworth JSON" style="rounded=0;whiteSpace=wrap;html=1;" vertex="1" parent="1">
          <mxGeometry x="680" y="260" width="120" height="60" as="geometry" />
        </mxCell>
        <mxCell id="ISORRHaMBGVGcDwKjLnG-10" value="GB3GF CSV" style="rounded=0;whiteSpace=wrap;html=1;" vertex="1" parent="1">
          <mxGeometry x="680" y="340" width="120" height="60" as="geometry" />
        </mxCell>
        <mxCell id="ISORRHaMBGVGcDwKjLnG-11" value="Inputs" style="text;html=1;strokeColor=none;fillColor=none;align=center;verticalAlign=middle;whiteSpace=wrap;rounded=0;fontStyle=1" vertex="1" parent="1">
          <mxGeometry x="140" y="140" width="40" height="20" as="geometry" />
        </mxCell>
        <mxCell id="ISORRHaMBGVGcDwKjLnG-12" value="Local" style="text;html=1;strokeColor=none;fillColor=none;align=center;verticalAlign=middle;whiteSpace=wrap;rounded=0;" vertex="1" parent="1">
          <mxGeometry x="140" y="170" width="40" height="20" as="geometry" />
        </mxCell>
        <mxCell id="ISORRHaMBGVGcDwKjLnG-13" value="Remote" style="text;html=1;strokeColor=none;fillColor=none;align=center;verticalAlign=middle;whiteSpace=wrap;rounded=0;" vertex="1" parent="1">
          <mxGeometry x="195" y="140" width="40" height="20" as="geometry" />
        </mxCell>
        <mxCell id="ISORRHaMBGVGcDwKjLnG-15" value="Outputs" style="text;html=1;strokeColor=none;fillColor=none;align=center;verticalAlign=middle;whiteSpace=wrap;rounded=0;fontStyle=1" vertex="1" parent="1">
          <mxGeometry x="720" y="410" width="40" height="20" as="geometry" />
        </mxCell>
        <mxCell id="ISORRHaMBGVGcDwKjLnG-16" value="" style="endArrow=classic;html=1;exitX=1;exitY=0.5;exitDx=0;exitDy=0;entryX=0;entryY=0.25;entryDx=0;entryDy=0;" edge="1" parent="1" source="ISORRHaMBGVGcDwKjLnG-2" target="ISORRHaMBGVGcDwKjLnG-1">
          <mxGeometry width="50" height="50" relative="1" as="geometry">
            <mxPoint x="370" y="290" as="sourcePoint" />
            <mxPoint x="395" y="310" as="targetPoint" />
          </mxGeometry>
        </mxCell>
        <mxCell id="ISORRHaMBGVGcDwKjLnG-17" value="" style="endArrow=classic;html=1;exitX=1;exitY=0.5;exitDx=0;exitDy=0;entryX=0;entryY=0.5;entryDx=0;entryDy=0;" edge="1" parent="1" source="ISORRHaMBGVGcDwKjLnG-3" target="ISORRHaMBGVGcDwKjLnG-1">
          <mxGeometry width="50" height="50" relative="1" as="geometry">
            <mxPoint x="370" y="290" as="sourcePoint" />
            <mxPoint x="400" y="320" as="targetPoint" />
          </mxGeometry>
        </mxCell>
        <mxCell id="ISORRHaMBGVGcDwKjLnG-18" value="" style="endArrow=classic;html=1;exitX=1;exitY=0.5;exitDx=0;exitDy=0;entryX=0;entryY=1;entryDx=0;entryDy=0;" edge="1" parent="1" source="ISORRHaMBGVGcDwKjLnG-4" target="ISORRHaMBGVGcDwKjLnG-1">
          <mxGeometry width="50" height="50" relative="1" as="geometry">
            <mxPoint x="370" y="290" as="sourcePoint" />
            <mxPoint x="400" y="340" as="targetPoint" />
          </mxGeometry>
        </mxCell>
        <mxCell id="ISORRHaMBGVGcDwKjLnG-19" value="" style="endArrow=classic;html=1;exitX=1;exitY=0.5;exitDx=0;exitDy=0;entryX=0.25;entryY=1;entryDx=0;entryDy=0;" edge="1" parent="1" source="ISORRHaMBGVGcDwKjLnG-5" target="ISORRHaMBGVGcDwKjLnG-8">
          <mxGeometry width="50" height="50" relative="1" as="geometry">
            <mxPoint x="370" y="350" as="sourcePoint" />
            <mxPoint x="420" y="300" as="targetPoint" />
          </mxGeometry>
        </mxCell>
        <mxCell id="ISORRHaMBGVGcDwKjLnG-20" value="" style="endArrow=classic;html=1;exitX=0.5;exitY=1;exitDx=0;exitDy=0;entryX=0.5;entryY=0;entryDx=0;entryDy=0;" edge="1" parent="1" source="ISORRHaMBGVGcDwKjLnG-6" target="ISORRHaMBGVGcDwKjLnG-1">
          <mxGeometry width="50" height="50" relative="1" as="geometry">
            <mxPoint x="370" y="350" as="sourcePoint" />
            <mxPoint x="420" y="300" as="targetPoint" />
          </mxGeometry>
        </mxCell>
        <mxCell id="ISORRHaMBGVGcDwKjLnG-21" value="" style="endArrow=classic;html=1;exitX=0.5;exitY=1;exitDx=0;exitDy=0;entryX=0.75;entryY=0;entryDx=0;entryDy=0;" edge="1" parent="1" source="ISORRHaMBGVGcDwKjLnG-7" target="ISORRHaMBGVGcDwKjLnG-1">
          <mxGeometry width="50" height="50" relative="1" as="geometry">
            <mxPoint x="370" y="350" as="sourcePoint" />
            <mxPoint x="420" y="300" as="targetPoint" />
          </mxGeometry>
        </mxCell>
        <mxCell id="ISORRHaMBGVGcDwKjLnG-22" value="" style="endArrow=classic;html=1;exitX=0.5;exitY=1;exitDx=0;exitDy=0;entryX=0.25;entryY=0;entryDx=0;entryDy=0;" edge="1" parent="1" source="ISORRHaMBGVGcDwKjLnG-8" target="ISORRHaMBGVGcDwKjLnG-1">
          <mxGeometry width="50" height="50" relative="1" as="geometry">
            <mxPoint x="370" y="350" as="sourcePoint" />
            <mxPoint x="370" y="260" as="targetPoint" />
          </mxGeometry>
        </mxCell>
        <mxCell id="ISORRHaMBGVGcDwKjLnG-23" value="" style="shape=flexArrow;endArrow=classic;html=1;width=18;endSize=15.67;endWidth=22;" edge="1" parent="1">
          <mxGeometry width="50" height="50" relative="1" as="geometry">
            <mxPoint x="560" y="329" as="sourcePoint" />
            <mxPoint x="670" y="329" as="targetPoint" />
          </mxGeometry>
        </mxCell>
        <mxCell id="ISORRHaMBGVGcDwKjLnG-26" value="" style="shape=image;verticalLabelPosition=bottom;labelBackgroundColor=#ffffff;verticalAlign=top;aspect=fixed;imageAspect=0;image=data:image/png,iVBORw0KGgoAAAANSUhEUgAAAMgAAABuCAYAAABiHVxtAAAAGXRFWHRTb2Z0d2FyZQBBZG9iZSBJbWFnZVJlYWR5ccllPAAAG7ZJREFUeNrsXQl4ZFWVPpVUVZZK0lk6vXenu+mmaRqUxQEXhAZ0cNy+cUVBEddREXVcERFRPxVQUUdBmBkH3FAZ1xEUQUaEnkbEZus9vdLd6SSdTmfr7JW8Of97/+t6qVSSepWqpJZ7vu98lVS9+9695579nntfwLIsMWDAQGIIGAExYGASAVm//sIH9fN8xTbFolnsC54dVexT7FHsVDyieFixWXGn4m7F53hNuqBK8SHF0xSPgSZxv0ODRPjMKxT/lKNz/WrFHymOKg5MMM75ipsUX67YHff7uxX/k3wSzVV+5ziPKx5V3K+4WfH/FB9THI5vEFScqxhWXJwDAxymoGAS/6j4MIVnOgAaLFAsVVw0yXVzFH+o+CIKaS7B89n36iSuBQ2KE3xfy8/6PDEOqzmXb+X/TypeS74ao7UHcmhQIWr6dyjerbhN8ReKr+RvqQC0YX+S1y4ko4VziGZg7J8p1iR5fT+tTDwMSH7DWYr3K94QLyCBHB4UNOIbFO+jmXxzimbXDw3Op6uRK4C+nmKiiaTh84of8ApIvsA/KP5c8a/8O5PwdsUv5gBNblJ8neF533Ad47G8EhAXzmXAdU2Gn/M5xTdlMR2QUPiU4fWUYJE7t0V5OkAEmV9V/K04WapMwQ8UX5qF4/9Hxf8wfD4tuCifBcSF1yr+XrEyQ/cvY7IgmzKApyv+JMcSCdkIJ4Fvgik03CfO2gTWBtK1ymhR64fJzHVkvnTASxR/SV+8NwOEXCJOZusSmf31gTCD8rlZwGAbqZyqZrEPLl9VkibPEye9mwyAB+ekIiBf4SSUZ8AtClIwKhTniZPSRfrtPMW107g3Fr7ulNSyXMma428rXjXLTHmH4jlZooEhHF/OMqtQxLjsq0lcC14sTkVA+uI+0w0d/GxU3MC/QxSSdyleKqmteSDowmrw9zPU7w+yz9+epcnHIteVWcSM2ejiYX3nRsWzFd+YhPWxUolBSmZhYFhB/7M46VWsCj+c4n1u8mFiU4FvKb5lFuhzaRZq62xeX7vfj8nJNdiueKHizSm0hV/5kQz373a6hTMFKJe41cTUvqAtnwXEhU8zHvILb2NskylAzdaPGENlGuYzHqwzPJ8Z65brad7PKv46BQa+LMP9OlUyvw6BpMbP+CwDRkAmFZIOn21Q+p3p9ONrGZNk0pVbn8R1I4pNikNGLvxDPggIYpK7fLbBYtoLPNmKZGCL4lafz0G887EMjBnp5PckeS3q0z4sqVc7GwHJA/ix+F+kW+/z+gfEyaL5Lfv+muLFaRwr+p1sKhmbzj4q/iuW8x2sQhOQZxWf9tnmDJ/EWqP4lOInUlBCd6UpVlgnThlJcZLXY22mTWZ3NdvEIFkAsB5P+myz2tPWD61uFf+LgShH+W+J7cpLBWopHIuSvB4l2z/Ns3lOF6woNAFxrYgfmEfGHUzhWXBb7vPZBhbk36cxPlQAPD/Ja++R2V84HM1i6/H6QhSQgz6vL6NWTnUi36e4x2ebNzAm8Qtg9n9O8tqtdK0MjAXUDmIj3W/EKVtKRpACwTwiwDGf1+OQhmq/QZsHUNHsnnLip/L4E4yXfpLk9e8Up84qGehlIqE9C+bjCjJkaRYE5OX0FnCmQLI8j7R4NJ8EpJ/ESDYAC8j0S+pR0v1ecbJofuC/FA8p/mWK61Cqf4eP+76fiYRs8fNX5DA/IblxLJ9crFTSmOlQELAEn/bZBpWud8vkmS1swkKJfrLrF7emIKgGJoZdULr5JCAlKQhJugJJFE7e5bMNslG3TyAAIQblyVYePyrOYqCB9MEf8y1ITyXX35/G5+OomMd8tnnpBIKF7y7xoeneJtmbNcpFOBEj5pOALPJ5PdK7XWl8/gAZtdVnOxROft7z/7WSfDElYq4PKR4wPJ3WoP4LDNLzSkD8bsmF9eiU9JZh7BXnKEu/2vwGccpR1ou/9QvUeT1geDptAKHAGslv3C/ySUD8blKC9WiW9G8Nxc7Hq1Noh6D9lz6u/45ktlq4kACHpN+ieLJXOAD5kuZdJrHaqmRhN92iigz05zZxMlR+DnHws8EKe/Wz/VA4HPC9Q6ZeB0E5PmrLzpXU1kxaFPGGAmwaq5zEerteAn7HyfUH6ZqiGvyRidztfBEQrFDX+GyzPY5w6QbEBgvYt3QCFgHfJdl/mDTWevwcz4oTZ5Cm9luWP4eW97eZGEQ+uFhY7Ht3Cu0ezrCAAK4U51UN6QQIx64cmBe/vIX6sVeJ/7PLyugW3SbJVzkXlICg7mhdCmb5rzMgIHhRyxVMBqQDsCD5PzkyL6nwFlwlHJt6KIW2SLNjPWi5EZAYYK3gxhTa3SvONtSZALzD5P1puA+05M2S/4DynQsYI/oFnPDyN8WXGQFxgvI7U4yjfjXDfcW21+um0X57im5krsJeMvnfUmiLN2BhFfzDhSwgWGtAod/CFNr+r+IfZqHPWN9I5aQTvEvvcvFfrZzrgCzYeSnOFfgam9qwGl5SSAJyDt0jrBmkuo10Nt2Uj1NA/QDK45+SwgScqPkaSb0IExUJSOGunEkBmckTzBFAn0Zz+TAD61dN437fk7iXNM4w4O2975LkXwKKhcAfSGED1knePg3FBqX6NIN/3xCcIaGKZ/oA7wMMEeE7LhWnzBuZCKxqYosp3tOQjpPk4cd/NktchzdSs022HwV72P9VDLiADB7q3L6RQlssIOI8XtS53ZhpAcF+bBy8lsr7Qdz3NYT4Wc7OA7G7ryJDxMUqKdKtHVky2X8XJz195wS/I4NztZGJcYByEKyT3Cr+1zyglPHag9OZ8BjIlICcIf7LOmYTEOS+jkyZTXCXOEcJXZPA736H+K8KLhTADkuUiPw6xQD8MgoJEj1THgSY78fBNNH33JCl/fuMjM/SoERlY6FweyCgij2qYe2AKvTBQQlYFr6cqhlo9goqv1TgdMazry5kAcFhCiiAm7EMUABWfHRUbUBUAiMjyTbDoQxfY8wBt2ryo4FwfzAUUJkpkOMHJloqGKNzqqV35WrpW36SWMGQIyyjU+4YQNLmPEl9Lwzc+d+Js9UgrS5WtgPWC/CK5ttmXBMODUmgpFT2rTlFFh87IqFDOndF1EHF6jKHQjZTxwFcqU9NdW9reNjWrla4RDobGsQKFEnNnu1ijer9SkpycqICajFGqmvlkZPWKm1K7BC1unqurOk4IuWtLaoEhm26TRLo7pTYOyhTffUcNqudRZerN58FBAE4Kki/Lk6t1UxKh1gQDhWAPatOkQNVNbK/rFxerN8XKxOM6vfF/f1SdOyow8xFyRluWAfLGhVL20pllfTV1cuWufOlF1pW8czREak62iJFPT1ihXLobGook8EBRzhWrbX/j/Q7vNkZDsvj85eIzF0o5x3aJ8HWZodmrmIZ736hbusixiQvT7FHr6EbjnTylnwTkGfEeWENFg+bZ2OyAyocEgpL48nrpKm8QiJ9vTKo329cstKZ0KJiCQ70yvNr66SyrVUC+ruFCZ+MqembB1SD9q5cJY3V9dJZFlEr1S9B1awlalGemrtApH6RnLdvh4SOHlH3JDemM6B9H7WFY51tNUL6/yD5HmMDRJVmG5afbPtQGBsUgu2SjUQdazwWIF2vFOegiytS7BYST49TSH6VywLSTSlH5ef9zE5FEzKu+rHQ7Lb2UeaBhrcsK72aUCfXUuHYBeGIVEpENaMz2ZYEh51TTUv0kb1qNTZBM9bUy9nqfkFQ5HiPBMDUihaD0xN9hg+u2rRlxcmyvW6+CsaARAYcwQPgGZGhQelVZtmw8hS5oLdH1W+nBCoqErlxWROQwxrCTfwL3CqMQeO1wQRhVERjOHD9hiUrZHn9AhlWl7JPx3rawX1SdKTFVhxxrmWU2T94Eqm+Zq+c7hrSwde6AlKZpYIA7sLphQf5uY2IVdE9CWMAMNfIqJPxVu1rlUekb9FS9dcDUtbVoS5Ouy0k0OhWzLPFlts5SRIPd7bsiQYDq/uESWpcc5ocVssRHBpIONn4Lmjh+n5bM25SrS+q/c9ub3UEpafbFhL43Fakwu5zSAWtU1217dV1Euw/zvsExt03rIw0FIhK++IGqQ2XSgBunD3GMW5cqU8mSaQ4/fJJxdjkxYgdR1k1tdKlDA9lAGsxOEGO4cTYigLqrkaYUiqSJ5edJKfrvBYpPcNwvzAPGGtsvB9lHPqFaWYXkf28PLB+/YVIK2K1+rjM/Dsk8DykK/qJPUzdIXDFzrlOaoThKe+EzEep8oEGyYHhIenVSWisnSed5RHnMaptz1dXpLir09bWHmsC5kEpC97315eABhYF6BnbhINJdeLsgFnjjP0Nq2R/pEq1ef84Bp5q6NHScqnuOy5nNm6RqGr+JvW7o8VFcqCy2rEC6k5EdCxT3de2UCWODJy3b6eEOtrVCg1KQDW1BcaxrBfQdeiXiUuFLAoBFBIW4uIX0lBKfhnnaHSKOcV97lVaPSBUJAG1hiNVc+SRlWttdyk46P8t4o4lhuSU2oKxpK9HGo62Sri9zbG6oFP4xBEDl7PPfvfiuJoTJU73B9ZfsH5i98G+3BMcTWC6bY3qvXYqn92+NEHQNXEgNvaa4eHYWFQjQ3tYFZVydN5C2VpVK5GoCkgwTBPuXAtXBL5rQ+9xWbFrq1gaBwRgovGq+Ph+e8caP278rdape8VqeRIxgGqyEKxVCqrFnnBYDvjV6kLYfrZq2kg0OqFmnfReGKPSY6kK3TIN3sMQFFo5mWR9IX4+3OSAQ2cok7BthWXMNZLQXT3BCwAkLrRPUY03WuepwoLgq3KB+zSYBlUc1X6hT0t1Lhvamm33tLj9iPah6EQ8NlE/J+TxsbxYHFh/4UWJSYZgSR9oayEQC1pTJ9Aal3RzzKd9QzDbpNUnAZsZbCKCsYXM7k6eanV7cobpg4NhVKMGmP+3sLagk92zYLGMaPthJX6tEmREr9sIzaTtgnr/qO3SSMK+REMlslz99eqBPokc75ZwXHBrP5/pRTdQFm/wq33oWrZCnpq3WLXggKR27nVcn2zmg1+TntghCqsRLpPl3cdksdLHDnLxHWiNOXJpCiuI7zA+73yAzmqNuxctkxGlQ03zIQmoRbKtEefQTT6MHT9/Q3vV9NHaemmdO192qdISVVrB0RHJBNjjDZbYfHiqjnluW4sUdXfFBHZcPxPweAJetK9a/L7xJT9tynBnH2lS37dPtqjPN18Zobq7Q3bWL5TyuAUwBE5LlOEieu2T+nt9dGJvCPc9Q/3uEZ2QHXPqpFKJuarlkBRr21E1jQcXLpUuvWbd4QNSpNqnSINYm+CwEMr8A8tPksfVDUHGyB4EtK769a7k237+lJrWcqwLCKDjWq7tEQB6x7NGtRH8/x7tyzINqJtr5o65pqm0zGaCdDF0JsC2KOES28LV6zjrlMHrW5ukGPFO1KGpLSCVldIxf7HsUTfxxHzofLYvXi5bECvoOOv7e6VMmU9VpD2HZyl9etW9PBSpHMMP+O15nUclcqxNmhavkN0aT0EgEZvNlMceVVczqHNaqYy/Wvvh8lp1HF/G8/gc/X1p80Gb70Z0bLsXLJFieyH26k9ObH4Y+E7lYo0zVVNlfrzXeoNJ91l20FUs6zqOylydMPj7HfMXyTM19baWcDVRAEJvt7ckNGr5cnOcttSCflwsCKLdz+wVjjFjtDU9aQzlE09TjdNOeAAn5iMwhs7RouLk59vlG/ym7f3OS1rGjDG4/ZiML+N5PAEvBoJXfayMQSiyF0UMiFs9QRo2JhUzWMYndvGVMdgLMrA9TI6pYiBYS+xnRqGCv/VxYQdPr+MzvKuXc/j8PjfwDKrmq1At2Fka8QZ2uNeIjF/5DHEc3ezPfAaMIxwbvjvChESY96niOAL8voXXV3GMeGg1xxL/Nqoy/uY+IyATv3YZ2YKauIxSK4Ne7zWlMvb9HmE+I8J+jrKPvZ6sU7nE6pIWkN7eMbckQdO5HKs3ekb7Rbz/KP9vIX2Fc1wvsbOtOkhfN0O6hJ/u74NsP8x7zWNfR/l7C+lRSuzyaKJi9rGDtK1l+0HymPu+lyHSv4xjGeb3tZ4gvJhtjrEfc/jcaNzchvDjZ5m5+CsXSvYzneqeVPhdLsIBsEqN2pfN4tQ4PUaGd9+Fdzfzx9fzHthT/AQ/sR/j9+zgak7oL+OYewP74+T51TWAf9mpZjoyMCbr8U0+O748/naOAc/4GAmOis1nibv4O4T8xfz/V+z/z9lH9w1Q2Ll4FSf4WWZF4uFu0u4hcXYKbuX9GxLEwdgV1yhODdGfma720lnYB9DF+6q193BO8A7GjewjaP5W/o5q4D9x0j/EFPhm4tMcIz5PnYSmWCTD+zDuSZDu3M6xPcR5bGaG5yzS5S/87c8U+PeyLQoK9/HZm3kteOcW/v5J/u/Ozzb+D97Ai3d2yNjzli/nfLp7ZD7MvoEum4hogw1xF5DXXqh4JtfNdvI5m9kOSv1i0g28HH/kK3Zy3ovJP5kSdxk1aAk7/3dKHaR4DZnqDZzoW6jRephKc7XiqZTCK7mqeQo//41M6Pom3yFBV3PA32RHV3sk3Vk/oJmPy3rgeafz3pfyO9Rfec+MuoyEeDPv2cdx/JjC0U3NcgWJBlrcJE6F542cnCoK7tIEayUBEn8zU6h1/G5Ixh9bAyvwMgrAR0i7ZRLbIYlJdo8v2kB6rSetTiXdLiWDhNjnu8mA7exbHekOxfFxKg/MJ84sxt5snACzbQKa3kwmP41K4VbywWeoQL5AbR0h84EnvkEr9lbSrphrBzvY55dRUf6CVgb9/AAX877LeUGx4JfYtobXnk0hnO/hq7VUnPdRAP9AHnLf7oX/f83nBUjb0/n3mzmPr2K/3YwLqi9eR+EA/T5FXn4Nr8N3q9yBHZSxJdafJkHPpGYRmqoRrgc8TWb8IJnwd67nxknt5KT38GGuNhMy0zlk2mu5ankn2/Ql6dyXU8Au4OSBKd5CIq30MGWjjK2tcSs/Rzwu0FXsZ4jE+TrdhKBn3JIg92+x3ToKVpDCvi1Bf0eosV5Iy7ZHYgdOuMfb3ESh/j1pdjUFJcj+PMT7CDXhO3m/ZvZxiH3awTly4QjdkomqJt7DeQYT30DG/zH7gArj11JBhCkgm8jsqGJA7dP36OZU8ln38NpRXrtdYqdYPkUhHqJr0yhjX9/tvhLvA57FYleAW6m8NlLAzqcyCXAeDnies4T3H+S4j7LywstbzeR9dzn+OvLQDvIQZGI46PHvvHAKpa5NYkdBFvG6Ys/EojgQu7NeQcL0ydgS+lIys7u1tIaTEKZQNLCD15Nxiqn1poKF1KB49l5+dzGt4fUeDV+UQJO74w2R4X7Ie7jxw0vYp0HPfWSCfpVygm/g2KY68CxKxfA5Tta/0LJeR40PYX096XUdBWSQ/Q16BGQFGbKfv7ljDSWYS7dtogrJOtLLnY+VHPuX6MJ8mdq5iHMbId2xbfiLFPoajquHwvIZKthogmeGPP0pjutrmO1+KrFi0yO0Hq/mM++gZoeFehMFuJL98t5r1DN3QQ8Ox9HFpRsE8wGO93HGJhDIg26Q/SJqjUEy7cXUWFvoboU54C4y8hl0URoZOA17NLs3LgiybcgTI4TICA3U/M9Q8z5Bf/QyTlwJzezjMv5MqSBX//fR9J5MP/kSiZ120kaL8CMy3JBHa3eROMV0ZRr491p+X+sx7yGO7yOkU4TjvI/0Qpt/4kRdyWddQ5/Xyxiu8H6JrsS99LUP0SW6mVqwjhr0DrqQz9BluJuaexHdhb0c2zXsq+sJvIU0CDMJ4rqHhxMIyPfJTBCG5dTOz9B6PUEr1cd5KvWUm7TTLb6IbmMln7WEdO7g8xHPvZG/99G1Pci/m2m9llLwa0nHZz0JhzVUEg9yrHDBv0I37R62bfEkZ7zCVsq52s3rfkOedQXjXAq/q3Tm8/NchhDgyQPFRee8qMyjfSo40NsZ8Akn5wBvtt+TeUC7Vfzuc5wwmOlHJbZJyeLA/0CJfCUJ+3MGd5soiG6Zx6McVCX7U8OJfTCBi7WNAvWoxI6sD1KT3U9TGeHzLRIMzHAXie0+p4JjbODkXcd719FNdOMTlz4hapxG9r2I7d099UH292icRouQLtupDR+jn342kxXXkylduhwgXTZ6XBg3O/VTWp8uzkcX3cvtnIM6jrmM1/+EwuDVoFBsF9KlvIfPfZJ+/SLO10YG4wv4nIXs6zfIJ2vJfLUUsMcpFM3Eeo5b2PdmKoInqNzqSDfXsuBY1dso4B2MjVdRKT9Ct3oz57yBdNzF+zzIOXe9nVJahY28/zyP5Srn/W4i7eqo8Nzs4R/Z11akeWey7kpyYgGhMCAX5iMw2/2bcOfOdHplJW5/4mtr4mv83vPEd9k2y1YSfU52jOmao7g+pTwfVoZ/T3RpMn200sS33nsErTROQCrtrTTcM1uFJJk+T5cmVprnJguFZEbvHX+PfNyTbsDAdDyqUsoFYqwh/PF5BlODhj4G8jjeYpHZidRvmJ8I2EuYJHJfy7aPCYvmIDMEVYaGBgoMkF7fS6FAZgwZMKSMkTnDEkG/62L1GgExkGfgVnN00CJgLWS/OCnhPRQKpHSn3KBiYhADuQ7uG2v30zXaRkE4RGvQM52bGwExkAuAKo5jFIJGWoTnPJ9dEivBTysYATGQTTBAhm+RWPHhIYmtmM/4uWdGQAzMBhxnLPAcBaFRYns0mmgRsgKMgBjIFAzRLWqmMOylFdhNoTgsSb6jwwiIgVyGYY8QPEdB2CqxA//cLcw5CUZADPhxi1Dhu4OWwF1QQ1n/UVqLkXwbtBEQA15wD4RoolXYQavgZoz2S4FVXBgBKVxBOORhfrhF2+gmNdNSRA2ZjIDkO2CR7IiMXT/YLbGFNaw2m/05RkDyHjrJ+G5t0U7GBy0UhOOGREZA8h2QEu2iEDR6guQd/Bt1R32GTEZACsEtamIcAKuwKy5IbjdukRGQQnGLDkqsjGIvXaP9jBu6DImMgOQ7YBGtjbEAhGC7J07AJxbSTLbICEjewxAtwR4P8++UWNHdYeMWGQHJd4Cmd1eTd1Ig9jFg3klL0W0EwQhIvsMoY4DDFIIdtAhurRECaLN/3whIQbhFzWT6nRQAWITdtBJHjSAYKAQB6SDDQ/Nv9cQJ+2gZug0bGCgEAWnxML/7YpYm/n3AWAMDhSAgOIGlk5rfLbLbJbHFtGMy/tVnBgzknYC47z08JGPXD/bzu3YzdQYKQUDayfS7JZYl2sng2d2EY8BAXgvIAOODNo875AbJ7ml2o2YqDOS7gPRLrIziIN2iPQyU8X2HIbeBfBcQ9110TZ6YYCf/3kvXCKvNZjXZQN4ISGmC78HgRyR2btEOiZVXuEc6mmyRgYIQkF20DJvI+I2MDxAkY4Ft2JDJQKFCwLKMN2TAgBEQAwaMgBgwYATEgAEjIAYMGAExYMAIiAEDRkAMGDACYsCAERADBgwYATFgIBn4fwEGAKtJDCumC/TaAAAAAElFTkSuQmCC;" vertex="1" parent="1">
          <mxGeometry x="680" y="120" width="113.64" height="62.5" as="geometry" />
        </mxCell>
      </root>
    </mxGraphModel>
  </diagram>
</mxfile>
